<svg width="56" height="60" viewBox="0 0 56 60" fill="none" xmlns="http://www.w3.org/2000/svg">
<path d="M27.9297 2.36135C28.3039 1.89304 28.7674 1.5036 29.2932 1.2156C29.819 0.927596 30.3966 0.746739 30.9928 0.683498C31.5889 0.620257 32.1917 0.675888 32.7662 0.847171C33.3407 1.01845 33.8756 1.30199 34.3397 1.68136L49.1273 13.758C49.9406 14.422 50.4981 15.3477 50.7048 16.377C50.9115 17.4064 50.7545 18.4755 50.2607 19.402C48.9678 19.0069 47.6233 18.8067 46.2714 18.8081H44.9114L46.2623 17.2668L38.4741 10.9066L32.0504 18.8127H26.207L34.9608 8.04156L31.4702 5.19012L20.5994 18.8081H14.7967L27.9297 2.36135ZM39.4714 41.4746C38.8703 41.4746 38.2938 41.7134 37.8687 42.1384C37.4436 42.5635 37.2048 43.1401 37.2048 43.7412C37.2048 44.3424 37.4436 44.9189 37.8687 45.344C38.2938 45.7691 38.8703 46.0079 39.4714 46.0079H44.0047C44.6059 46.0079 45.1824 45.7691 45.6075 45.344C46.0326 44.9189 46.2714 44.3424 46.2714 43.7412C46.2714 43.1401 46.0326 42.5635 45.6075 42.1384C45.1824 41.7134 44.6059 41.4746 44.0047 41.4746H39.4714ZM5.47177 21.0748C5.47177 20.4736 5.71057 19.8971 6.13565 19.472C6.56073 19.0469 7.13726 18.8081 7.73841 18.8081H10.268L13.872 14.2748H7.73841C5.93496 14.2748 4.20537 14.9913 2.93013 16.2665C1.6549 17.5417 0.938477 19.2713 0.938477 21.0748V48.2745C0.938477 51.2803 2.13251 54.1629 4.2579 56.2883C6.38329 58.4137 9.26594 59.6077 12.2717 59.6077H46.2714C48.676 59.6077 50.9821 58.6525 52.6824 56.9522C54.3827 55.2519 55.3379 52.9457 55.3379 50.5411V32.408C55.3379 30.0034 54.3827 27.6973 52.6824 25.9969C50.9821 24.2966 48.676 23.3414 46.2714 23.3414H7.73841C7.13726 23.3414 6.56073 23.1026 6.13565 22.6775C5.71057 22.2524 5.47177 21.6759 5.47177 21.0748ZM5.47177 48.2745V27.4894C6.17896 27.7387 6.94508 27.8747 7.73841 27.8747H46.2714C47.4737 27.8747 48.6267 28.3523 49.4769 29.2025C50.327 30.0526 50.8047 31.2057 50.8047 32.408V50.5411C50.8047 51.7434 50.327 52.8965 49.4769 53.7467C48.6267 54.5968 47.4737 55.0744 46.2714 55.0744H12.2717C10.4682 55.0744 8.73866 54.358 7.46342 53.0828C6.18819 51.8075 5.47177 50.078 5.47177 48.2745Z" fill="#EB4C56"/>
</svg>
